<?xml version="1.0" standalone="no"?>
<!DOCTYPE svg PUBLIC "-//W3C//DTD SVG 20010904//EN"
 "http://www.w3.org/TR/2001/REC-SVG-20010904/DTD/svg10.dtd">
<svg version="1.0" xmlns="http://www.w3.org/2000/svg"
 width="512.000000pt" height="512.000000pt" viewBox="0 0 512.000000 512.000000"
 preserveAspectRatio="xMidYMid meet">
<metadata>
Created by potrace 1.11, written by Peter Selinger 2001-2013
</metadata>
<g transform="translate(0.000000,512.000000) scale(0.100000,-0.100000)"
fill="#000000" stroke="none">
<path d="M2003 4513 l-149 -448 -304 -3 -305 -2 -124 -438 c-68 -240 -129
-455 -136 -477 -7 -22 -45 -158 -86 -303 -79 -282 -75 -274 -145 -274 -47 0
-111 33 -190 100 -178 150 -267 187 -448 191 l-116 2 0 -150 0 -151 93 0 c112
0 155 -18 261 -107 79 -66 206 -157 206 -147 0 4 6 2 13 -4 17 -14 127 -43
138 -37 23 15 14 -35 -46 -247 -36 -128 -70 -245 -74 -259 -9 -25 -5 -27 323
-193 l331 -166 156 -307 156 -307 524 -174 523 -173 320 320 319 320 448 148
448 147 200 201 200 200 -95 235 c-52 129 -94 238 -94 242 0 5 13 8 30 8 50 0
133 21 185 48 56 28 81 46 210 150 104 84 151 102 267 102 l78 0 0 151 0 151
-132 -4 c-78 -3 -146 -10 -163 -18 -16 -7 -46 -20 -65 -28 -48 -20 -112 -65
-195 -135 -87 -73 -152 -107 -205 -107 -42 0 -120 34 -155 67 -11 11 -222 524
-480 1171 l-460 1152 -556 0 -557 0 -149 -447z"/>
<path d="M0 910 l0 -150 305 0 305 0 0 150 0 150 -305 0 -305 0 0 -150z"/>
<path d="M4510 910 l0 -150 305 0 305 0 0 150 0 150 -305 0 -305 0 0 -150z"/>
<path d="M910 310 l0 -150 450 0 450 0 0 150 0 150 -450 0 -450 0 0 -150z"/>
<path d="M3010 310 l0 -150 450 0 450 0 0 150 0 150 -450 0 -450 0 0 -150z"/>
</g>
</svg>
